<?xml version="1.0"?>
<svg xmlns="http://www.w3.org/2000/svg" xmlns:xlink="http://www.w3.org/1999/xlink" xmlns:svgjs="http://svgjs.com/svgjs" version="1.1" width="512" height="512" x="0" y="0" viewBox="0 0 512.001 512.001" style="enable-background:new 0 0 512 512" xml:space="preserve"><g>
<g xmlns="http://www.w3.org/2000/svg">
	<g>
		<path d="M426.576,11.533c-8.157,0-14.769,6.613-14.769,14.769V52.84C367.315,18.574,313.088,0,256,0    c-68.38,0-132.667,26.629-181.02,74.98C26.628,123.332,0,187.621,0,256c0,68.382,26.629,132.67,74.982,181.022    c2.884,2.885,6.664,4.326,10.443,4.326s7.56-1.442,10.444-4.326c5.767-5.768,5.767-15.119,0-20.887    C53.095,373.362,29.538,316.492,29.538,256C29.538,131.13,131.129,29.539,256,29.539c47.289,0,92.364,14.397,130.222,41.117    h-18.723c-8.157,0-14.769,6.613-14.769,14.769s6.613,14.769,14.769,14.769h59.077c0.472,0,0.937-0.028,1.398-0.071    c0.005,0,0.01,0,0.015-0.001c0.41-0.039,0.812-0.103,1.212-0.174c0.07-0.013,0.141-0.019,0.211-0.032    c0.39-0.076,0.771-0.175,1.15-0.281c0.082-0.023,0.165-0.039,0.247-0.064c0.368-0.11,0.727-0.241,1.082-0.379    c0.093-0.035,0.187-0.065,0.28-0.102c0.35-0.143,0.687-0.306,1.023-0.475c0.096-0.048,0.194-0.089,0.289-0.139    c0.352-0.186,0.69-0.392,1.024-0.606c0.072-0.046,0.148-0.086,0.22-0.133c1.652-1.096,3.07-2.514,4.165-4.166    c0.048-0.072,0.088-0.148,0.134-0.221c0.213-0.334,0.418-0.672,0.605-1.022c0.05-0.096,0.092-0.194,0.14-0.29    c0.168-0.335,0.331-0.672,0.474-1.021c0.037-0.093,0.067-0.187,0.102-0.281c0.138-0.355,0.269-0.714,0.379-1.082    c0.024-0.079,0.039-0.16,0.061-0.239c0.107-0.381,0.207-0.766,0.283-1.159c0.012-0.062,0.018-0.126,0.029-0.188    c0.156-0.86,0.249-1.74,0.249-2.644V26.302C441.345,18.146,434.732,11.533,426.576,11.533z" fill="#ffffff" data-original="#000000" style=""/>
	</g>
</g>
<g xmlns="http://www.w3.org/2000/svg">
	<g>
		<path d="M338.575,483.214c-2.308-7.823-10.521-12.292-18.345-9.985c-3.663,1.081-7.39,2.078-11.078,2.965    c-7.931,1.905-12.817,9.879-10.912,17.81c1.627,6.772,7.677,11.324,14.349,11.324c1.141,0,2.302-0.134,3.461-0.413    c4.178-1.003,8.397-2.132,12.541-3.355C336.413,499.252,340.883,491.037,338.575,483.214z" fill="#ffffff" data-original="#000000" style=""/>
	</g>
</g>
<g xmlns="http://www.w3.org/2000/svg">
	<g>
		<path d="M394.534,454.06c-4.264-6.951-13.358-9.131-20.312-4.866c-3.241,1.99-6.578,3.921-9.919,5.744    c-7.16,3.907-9.797,12.879-5.89,20.039c2.681,4.914,7.748,7.698,12.977,7.698c2.391,0,4.816-0.582,7.062-1.808    c3.777-2.061,7.55-4.247,11.216-6.495C396.622,470.107,398.8,461.013,394.534,454.06z" fill="#ffffff" data-original="#000000" style=""/>
	</g>
</g>
<g xmlns="http://www.w3.org/2000/svg">
	<g>
		<path d="M504.892,195.855c-1.008-4.188-2.139-8.406-3.359-12.535c-2.313-7.823-10.528-12.287-18.35-9.977    c-7.823,2.313-12.29,10.529-9.977,18.35c1.079,3.65,2.078,7.377,2.97,11.078c1.63,6.768,7.678,11.315,14.347,11.315    c1.144,0,2.308-0.135,3.47-0.415C501.921,211.763,506.802,203.785,504.892,195.855z" fill="#ffffff" data-original="#000000" style=""/>
	</g>
</g>
<g xmlns="http://www.w3.org/2000/svg">
	<g>
		<path d="M261.816,482.389c-3.804,0.096-7.698,0.096-11.5,0.003c-8.152-0.167-14.929,6.243-15.133,14.397    c-0.203,8.155,6.243,14.929,14.398,15.132c2.124,0.053,4.283,0.08,6.419,0.08c2.183,0,4.39-0.028,6.562-0.083    c8.155-0.206,14.598-6.983,14.392-15.137C276.748,488.627,269.953,482.197,261.816,482.389z" fill="#ffffff" data-original="#000000" style=""/>
	</g>
</g>
<g xmlns="http://www.w3.org/2000/svg">
	<g>
		<path d="M147.773,454.979c-3.348-1.825-6.69-3.758-9.934-5.747c-6.953-4.263-16.047-2.084-20.311,4.87    c-4.264,6.953-2.083,16.047,4.87,20.311c3.671,2.251,7.452,4.439,11.239,6.502c2.245,1.223,4.666,1.804,7.055,1.804    c5.231,0,10.301-2.786,12.981-7.705C157.577,467.853,154.934,458.882,147.773,454.979z" fill="#ffffff" data-original="#000000" style=""/>
	</g>
</g>
<g xmlns="http://www.w3.org/2000/svg">
	<g>
		<path d="M202.957,476.22c-3.71-0.89-7.442-1.886-11.09-2.963c-7.823-2.304-16.035,2.168-18.341,9.992    c-2.306,7.824,2.168,16.036,9.992,18.342c4.128,1.216,8.35,2.343,12.547,3.351c1.158,0.278,2.318,0.412,3.458,0.412    c6.672,0,12.724-4.554,14.35-11.327C215.776,486.095,210.889,478.124,202.957,476.22z" fill="#ffffff" data-original="#000000" style=""/>
	</g>
</g>
<g xmlns="http://www.w3.org/2000/svg">
	<g>
		<path d="M494.043,298.032c-7.933-1.9-15.904,2.991-17.803,10.924c-0.887,3.703-1.882,7.433-2.956,11.084    c-2.303,7.825,2.174,16.034,9.999,18.337c1.391,0.41,2.794,0.605,4.176,0.605c6.382,0,12.269-4.17,14.162-10.604    c1.216-4.131,2.341-8.352,3.345-12.543C506.866,307.902,501.975,299.932,494.043,298.032z" fill="#ffffff" data-original="#000000" style=""/>
	</g>
</g>
<g xmlns="http://www.w3.org/2000/svg">
	<g>
		<path d="M441.074,411.433c-5.914-5.618-15.262-5.38-20.881,0.534c-2.625,2.763-5.355,5.494-8.116,8.121    c-5.909,5.623-6.142,14.971-0.519,20.881c2.904,3.051,6.799,4.588,10.703,4.588c3.657,0,7.32-1.35,10.178-4.069    c3.118-2.968,6.203-6.053,9.169-9.175C447.226,426.4,446.988,417.052,441.074,411.433z" fill="#ffffff" data-original="#000000" style=""/>
	</g>
</g>
<g xmlns="http://www.w3.org/2000/svg">
	<g>
		<path d="M480.818,133.459c-2.062-3.775-4.252-7.552-6.506-11.226c-4.266-6.951-13.362-9.128-20.314-4.86    c-6.951,4.267-9.127,13.362-4.86,20.314c1.995,3.25,3.932,6.591,5.755,9.931c2.683,4.912,7.747,7.693,12.975,7.693    c2.393,0,4.82-0.583,7.067-1.811C482.094,149.59,484.727,140.618,480.818,133.459z" fill="#ffffff" data-original="#000000" style=""/>
	</g>
</g>
<g xmlns="http://www.w3.org/2000/svg">
	<g>
		<path d="M475.062,358.231c-7.163-3.901-16.133-1.258-20.035,5.907c-1.823,3.345-3.756,6.693-5.75,9.95    c-4.259,6.956-2.072,16.049,4.885,20.308c2.406,1.473,5.068,2.175,7.697,2.175c4.97,0,9.825-2.51,12.611-7.06    c2.253-3.68,4.44-7.464,6.498-11.246C484.87,371.102,482.225,362.132,475.062,358.231z" fill="#ffffff" data-original="#000000" style=""/>
	</g>
</g>
<g xmlns="http://www.w3.org/2000/svg">
	<g>
		<path d="M511.916,249.37c-0.208-8.155-7.004-14.548-15.139-14.388c-8.155,0.208-14.597,6.986-14.389,15.14    c0.049,1.945,0.075,3.922,0.075,5.879c0,1.868-0.023,3.756-0.068,5.614c-0.198,8.155,6.253,14.925,14.407,15.123    c0.122,0.003,0.243,0.004,0.364,0.004c7.991,0,14.563-6.379,14.758-14.412c0.05-2.095,0.077-4.225,0.077-6.33    C512,253.795,511.971,251.564,511.916,249.37z" fill="#ffffff" data-original="#000000" style=""/>
	</g>
</g>
<g xmlns="http://www.w3.org/2000/svg">
	<g>
		<path d="M427.238,264.034c-15.638-26.832-38.309-48.909-65.393-64.814c6.486-4.83,7.892-13.989,3.117-20.538    c-4.805-6.592-14.043-8.041-20.635-3.236l-12.755,9.296c-5.179-1.969-10.46-3.743-15.836-5.305l5.419-11.74    c3.419-7.405,0.186-16.181-7.22-19.6c-7.405-3.419-16.181-0.186-19.6,7.219l-8.217,17.799c-5.069-0.711-10.187-1.253-15.353-1.604    v-16.687c0-8.157-6.613-14.769-14.769-14.769s-14.769,6.613-14.769,14.769v16.687c-5.166,0.351-10.284,0.893-15.353,1.604    l-8.217-17.799c-3.42-7.405-12.194-10.638-19.6-7.219c-7.406,3.42-10.639,12.194-7.22,19.6l5.419,11.74    c-5.375,1.562-10.656,3.335-15.836,5.305l-12.755-9.296c-6.591-4.806-15.831-3.356-20.635,3.236    c-4.774,6.55-3.367,15.709,3.117,20.538c-27.084,15.906-49.756,37.983-65.393,64.814c-2.679,4.596-2.679,10.277,0,14.873    c33.447,57.389,99.062,93.04,171.238,93.04s137.791-35.651,171.238-93.04C429.918,274.311,429.918,268.63,427.238,264.034z     M256,342.409c-58.479,0-111.684-26.97-141.071-70.939c16.396-24.532,40.211-43.763,68.214-55.979    c0.693-0.236,1.37-0.523,2.025-0.862c11.138-4.692,22.917-8.278,35.141-10.658c0.002,0,0.004-0.001,0.006-0.001    c11.556-2.25,23.503-3.436,35.684-3.436s24.128,1.186,35.684,3.436c0.002,0,0.004,0.001,0.006,0.001    c12.223,2.381,24.001,5.967,35.138,10.657c0.657,0.34,1.334,0.627,2.029,0.864c28.003,12.216,51.817,31.448,68.213,55.979    C367.684,315.44,314.479,342.409,256,342.409z" fill="#ffffff" data-original="#000000" style=""/>
	</g>
</g>
<g xmlns="http://www.w3.org/2000/svg">
	<g>
		<path d="M256,217.891c-29.544,0-53.58,24.035-53.58,53.58s24.035,53.581,53.58,53.581s53.58-24.036,53.58-53.581    S285.544,217.891,256,217.891z M256,295.513c-13.257,0-24.041-10.786-24.041-24.042s10.785-24.041,24.041-24.041    s24.041,10.784,24.041,24.041S269.257,295.513,256,295.513z" fill="#ffffff" data-original="#000000" style=""/>
	</g>
</g>
<g xmlns="http://www.w3.org/2000/svg">
</g>
<g xmlns="http://www.w3.org/2000/svg">
</g>
<g xmlns="http://www.w3.org/2000/svg">
</g>
<g xmlns="http://www.w3.org/2000/svg">
</g>
<g xmlns="http://www.w3.org/2000/svg">
</g>
<g xmlns="http://www.w3.org/2000/svg">
</g>
<g xmlns="http://www.w3.org/2000/svg">
</g>
<g xmlns="http://www.w3.org/2000/svg">
</g>
<g xmlns="http://www.w3.org/2000/svg">
</g>
<g xmlns="http://www.w3.org/2000/svg">
</g>
<g xmlns="http://www.w3.org/2000/svg">
</g>
<g xmlns="http://www.w3.org/2000/svg">
</g>
<g xmlns="http://www.w3.org/2000/svg">
</g>
<g xmlns="http://www.w3.org/2000/svg">
</g>
<g xmlns="http://www.w3.org/2000/svg">
</g>
</g></svg>
